<svg class="svg-icon" style="width: 1em;height: 1em;vertical-align: middle;fill: currentColor;overflow: hidden;" viewBox="0 0 1024 1024" version="1.1" xmlns="http://www.w3.org/2000/svg"><path d="M512 32c265.088 0 480 214.912 480 480 0 265.088-214.912 480-480 480-265.088 0-480-214.912-480-480C32 246.912 246.912 32 512 32z m0 434.72l-169.376-169.344a32 32 0 0 0-47.904 42.24l2.656 3.008L466.72 512l-169.344 169.376-2.656 3.008a32 32 0 0 0 0 39.232l2.656 3.008 3.008 2.656a32 32 0 0 0 39.232 0l3.008-2.656L512 557.28l169.376 169.344a32 32 0 0 0 47.904-42.24l-2.656-3.008L557.28 512l169.344-169.376 2.656-3.008a32 32 0 0 0 0-39.232l-2.656-3.008-3.008-2.656a32 32 0 0 0-39.232 0l-3.008 2.656L512 466.72l-169.376-169.344L512 466.72z" fill="#fff" /></svg>