<svg class="svg-icon" style="width: 1em; height: 1em;vertical-align: middle;fill:#67eb8e ;overflow: hidden;" viewBox="0 0 1024 1024" version="1.1" xmlns="http://www.w3.org/2000/svg"><path d="M960.984615 145.723077l-82.707692-82.707692c-31.507692-31.507692-80.738462-31.507692-110.276923 0l-64.984615 64.984615c-7.876923 7.876923-7.876923 19.692308 0 27.569231l167.384615 167.384615c7.876923 7.876923 19.692308 7.876923 27.569231 0l64.984615-64.984615c29.538462-31.507692 29.538462-80.738462-1.969231-112.246154z m-313.107692 64.984615c-7.876923-7.876923-19.692308-7.876923-27.569231 0L106.338462 724.676923 41.353846 947.2c-5.907692 21.661538 13.784615 43.323077 35.446154 37.415385l224.492308-63.015385h-1.969231l513.969231-513.969231c7.876923-7.876923 7.876923-19.692308 0-27.569231l-165.415385-169.353846z"  /></svg>