<svg class="svg-icon" style="width: 1em; height: 1em;vertical-align: middle;fill:#ffffff ;overflow: hidden;" viewBox="0 0 1024 1024" version="1.1" xmlns="http://www.w3.org/2000/svg"><path d="M960 576 64 576c-35.2 0-64-28.8-64-64 0-35.2 28.8-64 64-64l896 0c35.2 0 64 28.8 64 64C1024 547.2 995.2 576 960 576zM960 200 64 200c-35.2 0-64-28.8-64-64 0-35.2 28.8-64 64-64l896 0c35.2 0 64 28.8 64 64C1024 171.2 995.2 200 960 200zM64 824l896 0c35.2 0 64 28.8 64 64 0 35.2-28.8 64-64 64L64 952c-35.2 0-64-28.8-64-64C0 852.8 28.8 824 64 824z"  /></svg>